<?xml version="1.0" encoding="UTF-8" standalone="no"?>
<!-- Generator: Adobe Illustrator 23.0.1, SVG Export Plug-In . SVG Version: 6.00 Build 0)  -->

<svg
   version="1.1"
   id="Livello_1"
   x="0px"
   y="0px"
   viewBox="0 0 282.5431 282.70221"
   enable-background="new 0 0 1395.7 250"
   xml:space="preserve"
   sodipodi:docname="google-pay-new.svg"
   width="282.54309"
   height="282.70221"
   inkscape:version="1.1 (c4e8f9ed74, 2021-05-24)"
   xmlns:inkscape="http://www.inkscape.org/namespaces/inkscape"
   xmlns:sodipodi="http://sodipodi.sourceforge.net/DTD/sodipodi-0.dtd"
   xmlns="http://www.w3.org/2000/svg"
   xmlns:svg="http://www.w3.org/2000/svg"><defs
   id="defs42" /><sodipodi:namedview
   id="namedview40"
   pagecolor="#ffffff"
   bordercolor="#666666"
   borderopacity="1.0"
   inkscape:pageshadow="2"
   inkscape:pageopacity="0.0"
   inkscape:pagecheckerboard="0"
   showgrid="false"
   fit-margin-top="21"
   fit-margin-left="0"
   fit-margin-right="0"
   fit-margin-bottom="21"
   inkscape:zoom="0.90062337"
   inkscape:cx="431.36788"
   inkscape:cy="57.182615"
   inkscape:window-width="1920"
   inkscape:window-height="1043"
   inkscape:window-x="1920"
   inkscape:window-y="0"
   inkscape:window-maximized="1"
   inkscape:current-layer="g37" />
<g
   id="g37"
   transform="translate(0.03849642,20.997605)">
	<g
   id="Product_name">
		
		
		
	</g>
	
	<g
   id="Product_icon">
		
			<linearGradient
   id="Google_Red_1_"
   gradientUnits="userSpaceOnUse"
   x1="166.3219"
   y1="132.1265"
   x2="270.05789"
   y2="94.369698"
   gradientTransform="matrix(1,0,0,-1,0,228.339)">
			<stop
   offset="0.2"
   style="stop-color:#D93025"
   id="stop22" />
			<stop
   offset="0.6"
   style="stop-color:#EA4335"
   id="stop24" />
		</linearGradient>
		<path
   id="Google_Red"
   fill="url(#Google_Red_1_)"
   d="m 148.8,145.3 69.9,-121.1 38.1,22 c 24.6,14.2 33,45.6 18.8,70.2 l -39.4,68.2 c -8.9,15.4 -28.5,20.6 -43.9,11.8 L 157,176 c -10.7,-6.3 -14.4,-20 -8.2,-30.7 z"
   style="fill:url(#Google_Red_1_)" />
		<path
   id="Google_Yellow"
   fill="#fdbd00"
   d="m 141.4,61.2 -86.9,150.6 38.1,22 c 24.6,14.2 56,5.8 70.2,-18.8 l 56.4,-97.7 c 8.9,-15.4 3.6,-35 -11.8,-43.9 L 172,53 c -10.7,-6.2 -24.4,-2.5 -30.6,8.2 z" />
		<path
   id="Google_Green"
   fill="#2da94f"
   d="M 218.7,24.2 191.8,8.6 C 161.1,-9.1 121.8,1.4 104,32.1 l -50,86.6 c -8.9,15.4 -3.6,35 11.8,43.9 l 26.9,15.6 c 15.4,8.9 35,3.6 43.9,-11.8 L 196.3,63 v 0 c 12.4,-21.5 39.8,-28.8 61.3,-16.4" />
		
			<linearGradient
   id="Google_Blue_1_"
   gradientUnits="userSpaceOnUse"
   x1="8.8361998"
   y1="119.9087"
   x2="124.3986"
   y2="77.847397"
   gradientTransform="matrix(1,0,0,-1,0,228.339)">
			<stop
   offset="0.2"
   style="stop-color:#4285F4"
   id="stop30" />
			<stop
   offset="0.8"
   style="stop-color:#1B74E8"
   id="stop32" />
		</linearGradient>
		<path
   id="Google_Blue"
   fill="url(#Google_Blue_1_)"
   d="M 111.8,57.5 82.1,40.4 C 68.8,32.8 51.9,37.3 44.3,50.5 L 8.5,112.1 c -17.6,30.3 -7.1,69.1 23.3,86.7 l 22.6,13 27.5,15.8 11.9,6.9 C 72.7,220.3 66,192 78.9,169.7 l 9.2,-15.9 33.8,-58.4 C 129.6,82 125,65.1 111.8,57.5 Z"
   style="fill:url(#Google_Blue_1_)" />
	</g>
</g>
</svg>
