<?xml version="1.0" encoding="UTF-8" standalone="no"?>
<!-- Generator: Adobe Illustrator 23.0.1, SVG Export Plug-In . SVG Version: 6.00 Build 0)  -->

<svg
   xmlns:ns="http://ns.adobe.com/SaveForWeb/1.0/"
   xmlns:dc="http://purl.org/dc/elements/1.1/"
   xmlns:cc="http://creativecommons.org/ns#"
   xmlns:rdf="http://www.w3.org/1999/02/22-rdf-syntax-ns#"
   xmlns:svg="http://www.w3.org/2000/svg"
   xmlns="http://www.w3.org/2000/svg"
   xmlns:sodipodi="http://sodipodi.sourceforge.net/DTD/sodipodi-0.dtd"
   xmlns:inkscape="http://www.inkscape.org/namespaces/inkscape"
   version="1.1"
   id="Layer_2"
   x="0px"
   y="0px"
   viewBox="0 0 1903.6976 1903.6976"
   xml:space="preserve"
   sodipodi:docname="google-play.svg"
   width="1903.6975"
   height="1903.6975"
   inkscape:version="0.92.4 5da689c313, 2019-01-14"><defs
   id="defs69" /><sodipodi:namedview
   pagecolor="#ffffff"
   bordercolor="#666666"
   borderopacity="1"
   objecttolerance="10"
   gridtolerance="10"
   guidetolerance="10"
   inkscape:pageopacity="0"
   inkscape:pageshadow="2"
   inkscape:window-width="523"
   inkscape:window-height="457"
   id="namedview67"
   showgrid="false"
   fit-margin-top="0"
   fit-margin-left="97.69873"
   fit-margin-right="97.69873"
   fit-margin-bottom="0"
   inkscape:zoom="0.11157435"
   inkscape:cx="666.55921"
   inkscape:cy="826.57835"
   inkscape:window-x="45"
   inkscape:window-y="75"
   inkscape:window-maximized="0"
   inkscape:current-layer="Layer_2"
   units="px" />
<style
   type="text/css"
   id="style2">
	.st0{fill-rule:evenodd;clip-rule:evenodd;fill:url(#SVGID_1_);}
	.st1{fill-rule:evenodd;clip-rule:evenodd;fill:url(#SVGID_2_);}
	.st2{fill-rule:evenodd;clip-rule:evenodd;fill:url(#SVGID_3_);}
	.st3{fill-rule:evenodd;clip-rule:evenodd;fill:url(#SVGID_4_);}
	.st4{opacity:0.2;fill-rule:evenodd;clip-rule:evenodd;enable-background:new    ;}
	.st5{opacity:0.12;fill-rule:evenodd;clip-rule:evenodd;enable-background:new    ;}
	.st6{opacity:0.25;fill-rule:evenodd;clip-rule:evenodd;fill:#FFFFFF;enable-background:new    ;}
	.st7{fill-rule:evenodd;clip-rule:evenodd;fill:#808285;}
</style>
<metadata
   id="metadata4">
	<ns:sfw>
		<ns:slices />
		<ns:sliceSourceBounds
   bottomLeftOrigin="true"
   height="1903.7"
   width="8137.4"
   x="54.6"
   y="343.3" />
	</ns:sfw>
<rdf:RDF><cc:Work
     rdf:about=""><dc:format>image/svg+xml</dc:format><dc:type
       rdf:resource="http://purl.org/dc/dcmitype/StillImage" /><dc:title></dc:title></cc:Work></rdf:RDF></metadata>
<g
   id="g58"
   transform="translate(97.69873,-0.00828379)">
	
		<linearGradient
   id="SVGID_1_"
   gradientUnits="userSpaceOnUse"
   x1="2891.0461"
   y1="1504.5298"
   x2="2784.3533"
   y2="1449.4558"
   gradientTransform="matrix(11.64,0,0,-22.55,-32777,34043.164)">
		<stop
   offset="0"
   style="stop-color:#00A0FF"
   id="stop6" />
		<stop
   offset="6.569999e-03"
   style="stop-color:#00A1FF"
   id="stop8" />
		<stop
   offset="0.2601"
   style="stop-color:#00BEFF"
   id="stop10" />
		<stop
   offset="0.5122"
   style="stop-color:#00D2FF"
   id="stop12" />
		<stop
   offset="0.7604"
   style="stop-color:#00DFFF"
   id="stop14" />
		<stop
   offset="1"
   style="stop-color:#00E3FF"
   id="stop16" />
	</linearGradient>
	<path
   class="st0"
   d="M 33.7,29.2 C 12.3,52.2 0,87.6 0,133.6 v 1636.2 c 0,46 12.3,81.4 34.5,103.6 l 5.8,4.9 916.8,-916.8 V 940.9 L 39.5,24.3 c 0,0 -5.8,4.9 -5.8,4.9 z"
   id="path19"
   inkscape:connector-curvature="0"
   style="clip-rule:evenodd;fill:url(#SVGID_1_);fill-rule:evenodd" />
	
		<linearGradient
   id="SVGID_2_"
   gradientUnits="userSpaceOnUse"
   x1="2935.2341"
   y1="1422.7743"
   x2="2739.4341"
   y2="1422.7743"
   gradientTransform="matrix(9.145,0,0,-7.7,-25077.303,11907.105)">
		<stop
   offset="0"
   style="stop-color:#FFE000"
   id="stop21" />
		<stop
   offset="0.4087"
   style="stop-color:#FFBD00"
   id="stop23" />
		<stop
   offset="0.7754"
   style="stop-color:#FFA500"
   id="stop25" />
		<stop
   offset="1"
   style="stop-color:#FF9C00"
   id="stop27" />
	</linearGradient>
	<path
   class="st1"
   d="M 1262.1,1268.3 956.3,962.4 V 941 l 305.9,-305.9 6.6,4.1 361.8,205.6 c 103.6,58.4 103.6,154.6 0,213.8 l -361.8,205.6 c -0.1,0 -6.7,4.1 -6.7,4.1 z"
   id="path30"
   inkscape:connector-curvature="0"
   style="clip-rule:evenodd;fill:url(#SVGID_2_);fill-rule:evenodd" />
	
		<linearGradient
   id="SVGID_3_"
   gradientUnits="userSpaceOnUse"
   x1="2948.7686"
   y1="1431.3312"
   x2="2836.6423"
   y2="1285.8666"
   gradientTransform="matrix(15.02,0,0,-11.5775,-43191.684,17692.937)">
		<stop
   offset="0"
   style="stop-color:#FF3A44"
   id="stop32" />
		<stop
   offset="1"
   style="stop-color:#C31162"
   id="stop34" />
	</linearGradient>
	<path
   class="st2"
   d="M 1268.7,1264.2 956.3,951.7 33.7,1874.3 c 33.7,36.2 90.4,40.3 153.8,4.9 l 1081.2,-615"
   id="path37"
   inkscape:connector-curvature="0"
   style="clip-rule:evenodd;fill:url(#SVGID_3_);fill-rule:evenodd" />
	
		<linearGradient
   id="SVGID_4_"
   gradientUnits="userSpaceOnUse"
   x1="2862.3928"
   y1="1571.7466"
   x2="2912.4612"
   y2="1506.7556"
   gradientTransform="matrix(15.02,0,0,-11.5715,-43191.684,17672.391)">
		<stop
   offset="0"
   style="stop-color:#32A071"
   id="stop39" />
		<stop
   offset="6.850000e-02"
   style="stop-color:#2DA771"
   id="stop41" />
		<stop
   offset="0.4762"
   style="stop-color:#15CF74"
   id="stop43" />
		<stop
   offset="0.8009"
   style="stop-color:#06E775"
   id="stop45" />
		<stop
   offset="1"
   style="stop-color:#00F076"
   id="stop47" />
	</linearGradient>
	<path
   class="st3"
   d="M 1268.7,639.3 187.5,25.1 C 124.2,-11.1 67.4,-6.2 33.7,30 l 922.5,921.7 z"
   id="path50"
   inkscape:connector-curvature="0"
   style="clip-rule:evenodd;fill:url(#SVGID_4_);fill-rule:evenodd" />
	<path
   class="st4"
   d="M 1262.1,1257.6 188.3,1867.7 c -60,34.5 -113.5,32.1 -148,0.8 l -5.8,5.8 5.8,4.9 c 34.5,31.2 88,33.7 148,-0.8 l 1081.2,-614.2 c 0,0 -7.4,-6.6 -7.4,-6.6 z"
   id="path52"
   inkscape:connector-curvature="0"
   style="clip-rule:evenodd;opacity:0.2;fill-rule:evenodd;enable-background:new" />
	<path
   class="st5"
   d="m 1630.5,1047.9 -369.2,209.7 6.6,6.6 361.8,-205.6 c 51.8,-29.6 77.3,-68.2 77.3,-106.9 -3.3,35.4 -29.6,69.1 -76.5,96.2 z"
   id="path54"
   inkscape:connector-curvature="0"
   style="clip-rule:evenodd;opacity:0.12000002;fill-rule:evenodd;enable-background:new" />
	<path
   class="st6"
   d="m 187.5,35.8 1443,819.8 c 46.9,26.3 73.2,60.8 77.3,96.2 0,-38.6 -25.5,-77.3 -77.3,-106.9 L 187.5,25.1 C 83.9,-34.1 0,15.2 0,133.6 v 10.7 C 0,25.9 83.9,-22.6 187.5,35.8 Z"
   id="path56"
   inkscape:connector-curvature="0"
   style="clip-rule:evenodd;opacity:0.25;fill:#ffffff;fill-rule:evenodd;enable-background:new" />
</g>

</svg>