<?xml version="1.0" encoding="UTF-8" standalone="no"?>
<svg
   width="192.28275"
   height="192.16977"
   viewBox="0 0 50.878014 50.852001"
   version="1.1"
   id="svg25"
   sodipodi:docname="google-maps-new.svg"
   inkscape:version="1.1 (c4e8f9ed74, 2021-05-24)"
   xmlns:inkscape="http://www.inkscape.org/namespaces/inkscape"
   xmlns:sodipodi="http://sodipodi.sourceforge.net/DTD/sodipodi-0.dtd"
   xmlns="http://www.w3.org/2000/svg"
   xmlns:svg="http://www.w3.org/2000/svg">
  <sodipodi:namedview
     id="namedview27"
     pagecolor="#ffffff"
     bordercolor="#666666"
     borderopacity="1.0"
     inkscape:pageshadow="2"
     inkscape:pageopacity="0.0"
     inkscape:pagecheckerboard="0"
     showgrid="false"
     fit-margin-top="0"
     fit-margin-left="29.1"
     fit-margin-right="29.1"
     fit-margin-bottom="0"
     inkscape:zoom="1.257"
     inkscape:cx="277.24741"
     inkscape:cy="95.863166"
     inkscape:window-width="1920"
     inkscape:window-height="1043"
     inkscape:window-x="1920"
     inkscape:window-y="0"
     inkscape:window-maximized="1"
     inkscape:current-layer="svg25" />
  <path
     d="m 17.482095,37.68 a 51.38,51.38 0 0 1 4.006999,5.91 c 1.022,1.938 1.448,3.252 2.195,5.587 0.458,1.29 0.872,1.675 1.762,1.675 0.97,0 1.41,-0.655 1.75,-1.668 0.706,-2.205 1.26,-3.888 2.134,-5.478 1.715,-3.07 3.846,-5.798 5.94,-8.42 0.567,-0.742 4.232,-5.065 5.882,-8.476 0,0 2.028,-3.747 2.028,-8.98 0,-4.895 -2,-8.29 -2,-8.29 l -5.758,1.542 -3.497,9.21 -0.865,1.27 -0.173,0.23 -0.23,0.288 -0.404,0.46 -0.577,0.577 -3.114,2.537 -7.785,4.495 z"
     fill="#34a853"
     id="path2" />
  <path
     d="m 9.4470947,26.18 c 1.9000003,4.34 5.5640003,8.155 8.0430003,11.503 L 30.657094,22.086 c 0,0 -1.855,2.426 -5.22,2.426 -3.748,0 -6.776,-2.993 -6.776,-6.767 0,-2.588 1.557,-4.366 1.557,-4.366 l -8.937999,2.395 z"
     fill="#fbbc04"
     id="path4" />
  <path
     d="m 30.804094,0.802 c 4.373,1.41 8.116,4.37 10.38,8.735 l -10.523,12.54 c 0,0 1.557,-1.81 1.557,-4.382 0,-3.862 -3.252,-6.747 -6.765,-6.747 -3.322,0 -5.23,2.422 -5.23,2.422 v -7.9 z"
     fill="#4285f4"
     id="path6" />
  <path
     d="M 11.859095,6.343 C 14.471095,3.218 19.067094,0 25.403094,0 c 3.074,0 5.39,0.807 5.39,0.807 l -10.58,12.57 h -7.495999 z"
     fill="#1a73e8"
     id="path8" />
  <path
     d="m 9.4470947,26.18 c 0,0 -1.748,-3.423 -1.748,-8.382 0,-4.687 1.822,-8.784 4.1600003,-11.455 l 8.359999,7.035 z"
     fill="#ea4335"
     id="path10" />
  <defs
     id="defs23">
    <path
       id="B"
       d="m 91.48,22.327 c -5.78,0 -9.922,4.518 -9.922,9.788 0,5.348 4.018,9.95 10,9.95 5.407,0 9.836,-4.132 9.836,-9.836 0,-6.537 -5.153,-9.904 -9.904,-9.904 z m 0.057,3.877 c 2.843,0 5.536,2.298 5.536,6 0,3.624 -2.683,5.99 -5.55,5.99 -3.15,0 -5.635,-2.523 -5.635,-6.017 0,-3.418 2.455,-5.972 5.648,-5.972 z" />
  </defs>
</svg>
