<?xml version="1.0" encoding="UTF-8" standalone="no"?>
<!-- Generator: Adobe Illustrator 23.0.1, SVG Export Plug-In . SVG Version: 6.00 Build 0)  -->

<svg
   xmlns:ns="http://ns.adobe.com/SaveForWeb/1.0/"
   xmlns:dc="http://purl.org/dc/elements/1.1/"
   xmlns:cc="http://creativecommons.org/ns#"
   xmlns:rdf="http://www.w3.org/1999/02/22-rdf-syntax-ns#"
   xmlns:svg="http://www.w3.org/2000/svg"
   xmlns="http://www.w3.org/2000/svg"
   xmlns:sodipodi="http://sodipodi.sourceforge.net/DTD/sodipodi-0.dtd"
   xmlns:inkscape="http://www.inkscape.org/namespaces/inkscape"
   version="1.1"
   id="logo_x5F_news_x5F_192px"
   x="0px"
   y="0px"
   viewBox="0 0 6550.8063 6550.7996"
   enable-background="new 0 0 6550.8 5359.7"
   xml:space="preserve"
   sodipodi:docname="google-news.svg"
   width="6550.8062"
   height="6550.7998"
   inkscape:version="0.92.4 5da689c313, 2019-01-14"><defs
   id="defs64" /><sodipodi:namedview
   pagecolor="#ffffff"
   bordercolor="#666666"
   borderopacity="1"
   objecttolerance="10"
   gridtolerance="10"
   guidetolerance="10"
   inkscape:pageopacity="0"
   inkscape:pageshadow="2"
   inkscape:window-width="640"
   inkscape:window-height="480"
   id="namedview62"
   showgrid="false"
   fit-margin-top="595.5498"
   fit-margin-bottom="595.5498"
   fit-margin-left="0"
   fit-margin-right="0"
   inkscape:zoom="0.044032314"
   inkscape:cx="3275.3819"
   inkscape:cy="3275.3997"
   inkscape:window-x="0"
   inkscape:window-y="30"
   inkscape:window-maximized="0"
   inkscape:current-layer="logo_x5F_news_x5F_192px" />
<metadata
   id="metadata2">
	<ns:sfw>
		<ns:slices />
		<ns:sliceSourceBounds
   bottomLeftOrigin="true"
   height="5359.7"
   width="6550.8"
   x="-3408.4"
   y="-2775.9" />
	</ns:sfw>
<rdf:RDF><cc:Work
     rdf:about=""><dc:format>image/svg+xml</dc:format><dc:type
       rdf:resource="http://purl.org/dc/dcmitype/StillImage" /><dc:title></dc:title></cc:Work></rdf:RDF></metadata>
<g
   id="g59"
   transform="translate(-0.01802971,595.5498)">
	<path
   d="m 5210.8,3635.7 c 0,91.2 -75.2,165.9 -167.1,165.9 H 1507 c -91.9,0 -167.1,-74.7 -167.1,-165.9 V 165.9 C 1339.9,74.7 1415.1,0 1507,0 h 3536.8 c 91.9,0 167.1,74.7 167.1,165.9 v 3469.8 z"
   id="path4"
   inkscape:connector-curvature="0"
   style="fill:#0c9d58" />
	<polygon
   points="5210.8,892 3885.3,721.4 5210.8,1077 "
   id="polygon6"
   style="opacity:0.2;fill:#004d40" />
	<path
   d="M 3339.3,180.9 1332,1077.2 3550.5,269.7 v -2.2 c -39,-83.6 -134,-122.6 -211.2,-86.6 z"
   id="path8"
   inkscape:connector-curvature="0"
   style="opacity:0.2;fill:#004d40" />
	<path
   d="M 5043.8,0 H 1507 c -91.9,0 -167.1,74.7 -167.1,165.9 v 37.2 c 0,-91.2 75.2,-165.9 167.1,-165.9 h 3536.8 c 91.9,0 167.1,74.7 167.1,165.9 V 165.9 C 5210.8,74.7 5135.7,0 5043.8,0 Z"
   id="path10"
   inkscape:connector-curvature="0"
   style="opacity:0.2;fill:#ffffff" />
	<path
   d="m 2198.2,3529.1 c -23.9,89.1 23.8,180 106,202 l 3275.8,881 c 82.2,22 169,-32.9 192.8,-122 l 771.7,-2880 c 23.9,-89.1 -23.8,-180 -106,-202 l -3275.8,-881 c -82.2,-22 -169,32.9 -192.8,122 z"
   id="path12"
   inkscape:connector-curvature="0"
   style="fill:#ea4335" />
	<polygon
   points="5806.4,2638.1 5978.7,3684.8 5806.4,4328.1 "
   id="polygon14"
   style="opacity:0.2;fill:#3e2723" />
	<polygon
   points="3900.8,764.1 4055.2,805.6 4151,1451.6 "
   id="polygon16"
   style="opacity:0.2;fill:#3e2723" />
	<path
   d="m 6438.6,1408.1 -3275.8,-881 c -82.2,-22 -169,32.9 -192.8,122 l -771.7,2880 c -1.3,4.8 -1.6,9.7 -2.5,14.5 L 2961.7,685.4 c 23.9,-89.1 110.7,-144 192.8,-122 l 3275.8,881 c 77.7,20.8 123.8,103.3 108.5,187.6 l 5.9,-21.9 c 23.8,-89.1 -23.9,-180 -106.1,-202 z"
   id="path18"
   inkscape:connector-curvature="0"
   style="opacity:0.2;fill:#ffffff" />
	<path
   d="m 4778.1,3174.4 c 31.5,86.7 -8.1,181.4 -88,210.5 L 1233.4,4643 c -80,29.1 -171.2,-18 -202.7,-104.7 L 10.9,1736.5 C -20.6,1649.8 19,1555.1 98.9,1526 L 3555.6,267.9 c 80,-29.1 171.2,18 202.7,104.7 z"
   id="path20"
   inkscape:connector-curvature="0"
   style="fill:#ffc107" />
	<path
   d="m 24,1771.8 c -31.5,-86.7 8.1,-181.4 88,-210.5 L 3568.7,303.1 c 79.1,-28.8 169,17.1 201.5,102 l -11.9,-32.6 C 3726.7,285.8 3635.5,238.7 3555.6,267.8 L 98.9,1526 c -80,29.1 -119.6,123.8 -88,210.5 l 1019.8,2801.8 c 0.3,0.9 0.9,1.7 1.3,2.7 z"
   id="path22"
   inkscape:connector-curvature="0"
   style="opacity:0.2;fill:#ffffff" />
	<path
   d="m 5806.4,5192.2 c 0,92.1 -75.4,167.5 -167.5,167.5 h -4727 c -92.1,0 -167.5,-75.4 -167.5,-167.5 V 1619.1 c 0,-92.1 75.4,-167.5 167.5,-167.5 h 4727 c 92.1,0 167.5,75.4 167.5,167.5 z"
   id="path24"
   inkscape:connector-curvature="0"
   style="fill:#4285f4" />
	<path
   d="M 4903.8,2866 H 3489.4 v -372.2 h 1414.4 c 41.1,0 74.4,33.3 74.4,74.4 v 223.3 c 0,41.1 -33.3,74.5 -74.4,74.5 z"
   id="path26"
   inkscape:connector-curvature="0"
   style="fill:#ffffff" />
	<path
   d="M 4903.8,4280.3 H 3489.4 v -372.2 h 1414.4 c 41.1,0 74.4,33.3 74.4,74.4 v 223.3 c 0,41.2 -33.3,74.5 -74.4,74.5 z"
   id="path28"
   inkscape:connector-curvature="0"
   style="fill:#ffffff" />
	<path
   d="M 5127.1,3573.1 H 3489.4 v -372.2 h 1637.7 c 41.1,0 74.4,33.3 74.4,74.4 v 223.3 c 0,41.2 -33.3,74.5 -74.4,74.5 z"
   id="path30"
   inkscape:connector-curvature="0"
   style="fill:#ffffff" />
	<path
   d="m 5638.9,5322.5 h -4727 c -92.1,0 -167.5,-75.4 -167.5,-167.5 v 37.2 c 0,92.1 75.4,167.5 167.5,167.5 h 4727 c 92.1,0 167.5,-75.4 167.5,-167.5 V 5155 c 0,92.1 -75.4,167.5 -167.5,167.5 z"
   id="path32"
   inkscape:connector-curvature="0"
   style="opacity:0.2;fill:#1a237e" />
	<path
   d="m 911.9,1488.8 h 4727 c 92.1,0 167.5,75.4 167.5,167.5 v -37.2 c 0,-92.1 -75.4,-167.5 -167.5,-167.5 h -4727 c -92.1,0 -167.5,75.4 -167.5,167.5 v 37.2 c 0,-92.1 75.4,-167.5 167.5,-167.5 z"
   id="path34"
   inkscape:connector-curvature="0"
   style="opacity:0.2;fill:#ffffff" />
	<path
   d="m 2223.9,3238.2 v 335.7 h 481.7 c -39.8,204.5 -219.6,352.8 -481.7,352.8 -292.4,0 -529.5,-247.3 -529.5,-539.7 0,-292.4 237.1,-539.7 529.5,-539.7 131.7,0 249.6,45.3 342.7,134 v 0.2 l 254.9,-254.9 c -154.8,-144.3 -356.7,-232.8 -597.7,-232.8 -493.3,0 -893.3,399.9 -893.3,893.3 0,493.4 399.9,893.3 893.3,893.3 515.9,0 855.3,-362.7 855.3,-873 0,-58.5 -5.4,-114.9 -14.1,-169.2 z"
   id="path36"
   inkscape:connector-curvature="0"
   style="fill:#ffffff" />
	<g
   id="g44"
   style="opacity:0.2">
		<path
   d="m 2233.2,3573.9 v 37.2 h 472.7 c 3.5,-12.2 6.5,-24.6 9,-37.2 z"
   id="path38"
   inkscape:connector-curvature="0"
   style="fill:#1a237e" />
		<path
   d="m 2233.2,4280.3 c -487.1,0 -882.9,-389.9 -892.8,-874.7 -0.1,6.2 -0.5,12.4 -0.5,18.6 0,493.4 399.9,893.3 893.3,893.3 515.9,0 855.3,-362.7 855.3,-873 0,-4.1 -0.5,-7.9 -0.5,-12 -11.1,497 -347.4,847.8 -854.8,847.8 z"
   id="path40"
   inkscape:connector-curvature="0"
   style="fill:#1a237e" />
		<path
   d="m 2575.9,2981.3 c -93.1,-88.6 -211.1,-134 -342.7,-134 -292.4,0 -529.5,247.3 -529.5,539.7 0,6.3 0.7,12.4 0.9,18.6 9.9,-284.2 242.4,-521.1 528.6,-521.1 131.7,0 249.6,45.3 342.7,134 v 0.2 l 273.5,-273.5 c -6.4,-6 -13.5,-11.3 -20.1,-17.1 L 2576,2981.5 Z"
   id="path42"
   inkscape:connector-curvature="0"
   style="fill:#1a237e" />
	</g>
	<path
   d="m 4978.2,2828.7 v -37.2 c 0,41.1 -33.3,74.4 -74.4,74.4 H 3489.4 v 37.2 h 1414.4 c 41.1,0.1 74.4,-33.2 74.4,-74.4 z"
   id="path46"
   inkscape:connector-curvature="0"
   style="opacity:0.2;fill:#1a237e" />
	<path
   d="M 4903.8,4280.3 H 3489.4 v 37.2 h 1414.4 c 41.1,0 74.4,-33.3 74.4,-74.4 v -37.2 c 0,41.1 -33.3,74.4 -74.4,74.4 z"
   id="path48"
   inkscape:connector-curvature="0"
   style="opacity:0.2;fill:#1a237e" />
	<path
   d="M 5127.1,3573.1 H 3489.4 v 37.2 h 1637.7 c 41.1,0 74.4,-33.3 74.4,-74.4 v -37.2 c 0,41.1 -33.3,74.4 -74.4,74.4 z"
   id="path50"
   inkscape:connector-curvature="0"
   style="opacity:0.2;fill:#1a237e" />
	<radialGradient
   id="SVGID_2_"
   cx="1476.4038"
   cy="434.23639"
   r="6370.563"
   gradientUnits="userSpaceOnUse">
		<stop
   offset="0"
   style="stop-color:#FFFFFF;stop-opacity:0.1"
   id="stop52" />
		<stop
   offset="1"
   style="stop-color:#FFFFFF;stop-opacity:0"
   id="stop54" />
	</radialGradient>
	<path
   d="M 6438.6,1408.1 5210.9,1077.9 v -912 C 5210.9,74.7 5135.7,0 5043.8,0 H 1507 c -91.9,0 -167.1,74.7 -167.1,165.9 v 908.4 L 98.9,1526 c -80,29.1 -119.6,123.8 -88,210.5 l 733.5,2015.4 v 1440.3 c 0,92.1 75.4,167.5 167.5,167.5 h 4727 c 92.1,0 167.5,-75.4 167.5,-167.5 v -826.9 l 738.3,-2755.2 c 23.8,-89.1 -23.9,-180 -106.1,-202 z"
   id="path57"
   inkscape:connector-curvature="0"
   style="fill:url(#SVGID_2_)" />
</g>
</svg>