<?xml version="1.0" encoding="UTF-8" standalone="no"?>
<svg
   viewBox="0 0 174.60001 174.60001"
   version="1.1"
   id="svg14"
   sodipodi:docname="google-drive-new.svg"
   width="174.60001"
   height="174.60001"
   inkscape:version="1.1 (c4e8f9ed74, 2021-05-24)"
   xmlns:inkscape="http://www.inkscape.org/namespaces/inkscape"
   xmlns:sodipodi="http://sodipodi.sourceforge.net/DTD/sodipodi-0.dtd"
   xmlns="http://www.w3.org/2000/svg"
   xmlns:svg="http://www.w3.org/2000/svg">
  <defs
     id="defs18" />
  <sodipodi:namedview
     id="namedview16"
     pagecolor="#ffffff"
     bordercolor="#666666"
     borderopacity="1.0"
     inkscape:pageshadow="2"
     inkscape:pageopacity="0.0"
     inkscape:pagecheckerboard="0"
     showgrid="false"
     scale-x="2"
     fit-margin-top="9.3"
     fit-margin-left="0"
     fit-margin-right="0"
     fit-margin-bottom="9.3"
     width="174.6px"
     inkscape:zoom="5.3205128"
     inkscape:cx="48.585542"
     inkscape:cy="73.771084"
     inkscape:window-width="1920"
     inkscape:window-height="1043"
     inkscape:window-x="1920"
     inkscape:window-y="0"
     inkscape:window-maximized="1"
     inkscape:current-layer="svg14" />
  <path
     d="m 13.2,143 7.7,13.3 c 1.6,2.8 3.9,5 6.6,6.6 L 55,115.3 H 0 c 0,3.1 0.8,6.2 2.4,9 z"
     fill="#0066da"
     id="path2"
     style="stroke-width:2" />
  <path
     d="M 87.3,59.3 59.8,11.7 c -2.7,1.6 -5,3.8 -6.6,6.6 l -50.8,88 a 18.12,18.12 0 0 0 -2.4,9 h 55 z"
     fill="#00ac47"
     id="path4"
     style="stroke-width:2" />
  <path
     d="m 147.1,162.9 c 2.7,-1.6 5,-3.8 6.6,-6.6 l 3.2,-5.5 15.3,-26.5 c 1.6,-2.8 2.4,-5.9 2.4,-9 h -55.004 l 11.704,23 z"
     fill="#ea4335"
     id="path6"
     style="stroke-width:2" />
  <path
     d="m 87.3,59.3 27.5,-47.6 c -2.7,-1.6 -5.8,-2.4 -9,-2.4 h -37 c -3.2,0 -6.3,0.9 -9,2.4 z"
     fill="#00832d"
     id="path8"
     style="stroke-width:2" />
  <path
     d="M 119.6,115.3 H 55 l -27.5,47.6 c 2.7,1.6 5.8,2.4 9,2.4 h 101.6 c 3.2,0 6.3,-0.9 9,-2.4 z"
     fill="#2684fc"
     id="path10"
     style="stroke-width:2" />
  <path
     d="m 146.8,62.3 -25.4,-44 c -1.6,-2.8 -3.9,-5 -6.6,-6.6 l -27.5,47.6 32.3,56 h 54.9 c 0,-3.1 -0.8,-6.2 -2.4,-9 z"
     fill="#ffba00"
     id="path12"
     style="stroke-width:2" />
</svg>
