<?xml version="1.0" encoding="UTF-8" standalone="no"?>
<svg
   xmlns:dc="http://purl.org/dc/elements/1.1/"
   xmlns:cc="http://creativecommons.org/ns#"
   xmlns:rdf="http://www.w3.org/1999/02/22-rdf-syntax-ns#"
   xmlns:svg="http://www.w3.org/2000/svg"
   xmlns="http://www.w3.org/2000/svg"
   xmlns:sodipodi="http://sodipodi.sourceforge.net/DTD/sodipodi-0.dtd"
   xmlns:inkscape="http://www.inkscape.org/namespaces/inkscape"
   version="1.1"
   id="Layer_1"
   x="0"
   y="0"
   viewBox="0 0 121.40051 121.40051"
   xml:space="preserve"
   sodipodi:docname="youtube.svg"
   width="121.40051"
   height="121.40051"
   inkscape:version="0.92.4 5da689c313, 2019-01-14"><metadata
     id="metadata19"><rdf:RDF><cc:Work
         rdf:about=""><dc:format>image/svg+xml</dc:format><dc:type
           rdf:resource="http://purl.org/dc/dcmitype/StillImage" /><dc:title></dc:title></cc:Work></rdf:RDF></metadata><defs
     id="defs17" /><sodipodi:namedview
     pagecolor="#ffffff"
     bordercolor="#666666"
     borderopacity="1"
     objecttolerance="10"
     gridtolerance="10"
     guidetolerance="10"
     inkscape:pageopacity="0"
     inkscape:pageshadow="2"
     inkscape:window-width="523"
     inkscape:window-height="457"
     id="namedview15"
     showgrid="false"
     fit-margin-top="18.200255"
     fit-margin-left="0"
     fit-margin-right="0"
     fit-margin-bottom="18.200255"
     inkscape:zoom="2.3836312"
     inkscape:cx="52.922484"
     inkscape:cy="62.293222"
     inkscape:window-x="45"
     inkscape:window-y="75"
     inkscape:window-maximized="0"
     inkscape:current-layer="Layer_1" /><style
     id="style2">.st2{fill:#282828}</style><path
     d="m 118.9,31.500255 c -1.4,-5.2 -5.5,-9.3 -10.7,-10.7 -9.5,-2.6 -47.5,-2.6 -47.5,-2.6 0,0 -38,0 -47.5,2.5 -5.1,1.4 -9.3,5.6 -10.7,10.8 -2.5,9.5 -2.5,29.2 -2.5,29.2 0,0 0,19.8 2.5,29.2 1.4,5.2 5.5,9.3 10.7,10.700005 9.6,2.6 47.5,2.6 47.5,2.6 0,0 38,0 47.5,-2.5 5.2,-1.400005 9.3,-5.500005 10.7,-10.700005 2.5,-9.5 2.5,-29.2 2.5,-29.2 0,0 0.1,-19.8 -2.5,-29.3 z"
     id="path4"
     inkscape:connector-curvature="0"
     style="fill:#ff0000" /><path
     d="m 48.6,78.900255 31.6,-18.2 -31.6,-18.2 z"
     id="path6"
     inkscape:connector-curvature="0"
     style="fill:#ffffff" /></svg>