<?xml version="1.0" encoding="UTF-8" standalone="no"?>
<!-- Created with Inkscape (http://www.inkscape.org/) -->

<svg
   width="115.23145mm"
   height="115.23145mm"
   viewBox="0 0 115.23145 115.23145"
   version="1.1"
   id="svg5"
   xmlns="http://www.w3.org/2000/svg"
   xmlns:svg="http://www.w3.org/2000/svg">
  <defs
     id="defs2" />
  <g
     id="layer1"
     transform="translate(-33.452345,-64.941504)">
    <g
       id="g555">
      <circle
         style="fill:#ffffff;stroke:#000000;stroke-width:0.0351896;stroke-dashoffset:12.796"
         id="path161"
         cy="122.55723"
         cx="91.068069"
         r="57.598129" />
      <path
         id="path39"
         style="fill:#000000;fill-opacity:1;stroke-width:0.999999"
         d="m 342.95312,326.95508 c -4.40169,-0.0534 -9.2968,0.44801 -15.87304,1.49023 -5.49997,0.87167 -12.92502,1.69679 -16.5,1.83399 -7.95081,0.30497 -13.04408,2.72347 -18.73242,8.89453 -5.77123,6.26105 -6.76076,10.57466 -5.21289,22.7207 0.67804,5.31976 0.93623,10.85887 0.57226,12.30859 -0.36385,1.44972 -3.25496,5.67535 -6.42383,9.39063 -10.41331,12.20889 -10.20312,11.80947 -10.20312,19.35937 0,6.38688 -0.31931,7.37688 -4.89258,15.11524 -8.77164,14.84232 -13.78746,20.88751 -27.10742,32.68164 -6.61463,5.85691 -13.7256,8.25566 -28.3125,9.54883 -3.19692,0.28339 -7.24691,1.19741 -9,2.03125 -3.05945,1.45523 -9.6875,9.81546 -9.6875,12.21875 0,0.63685 -0.74373,1.9019 -1.6543,2.8125 -1.12422,1.12422 -1.80475,3.98358 -2.12109,8.91015 -0.49935,7.78096 0.0402,9.50103 4.89843,15.57813 2.44094,3.05333 5.87696,10.69197 5.87696,13.06445 0,0.44716 -2.13748,1.1238 -4.75,1.50391 -2.61249,0.38014 -5.96406,1.30698 -7.44922,2.06055 -5.32985,2.70436 -9.90146,1.52576 -14.63672,-3.77344 -3.51398,-3.93249 -9.35507,-4.78234 -13.77734,-2.00586 -3.64048,2.28571 -7.38672,9.39364 -7.38672,14.01562 0,5.50269 5.06488,12.38387 11.1582,15.16016 2.39274,1.0902 2.34394,1.17578 -4.73047,8.28711 -2.81574,2.83047 -5.91367,5.88306 -8.48047,8.38477 a 217.69372,217.69372 0 0 0 194.25782,122.30273 h 2.8164 a 217.69372,217.69372 0 0 0 11.96485,-0.44727 l 0.8789,-2.80273 c 1.91539,-6.1039 3.34198,-19.20093 2.70508,-24.83008 -0.45505,-4.02232 -0.27143,-5.90691 0.64649,-6.62695 2.88207,-2.26084 15.71687,-6.14284 22.02734,-6.66211 3.70945,-0.30524 7.5397,-0.98178 8.51172,-1.50195 0.97205,-0.52026 4.819,-1.19664 8.54883,-1.50391 3.72986,-0.3072 7.99963,-1.23457 9.48828,-2.06055 5.96065,-3.3072 11.78664,-5.88936 13.20703,-5.85156 0.82499,0.0213 5.10002,-1.63674 9.5,-3.68555 4.40001,-2.04884 9.29596,-4.0415 10.8789,-4.42773 4.79165,-1.16924 12.81865,-6.92508 18.38672,-13.1836 8.08309,-9.08541 24.23438,-31.35134 24.23438,-33.4082 0,-1.99585 -13.67429,-16.11372 -18.19336,-18.7832 -1.89502,-1.11942 -3.00799,-2.78928 -3.45703,-5.1875 -0.36435,-1.94566 -1.25097,-4.94934 -1.97071,-6.67383 -0.71977,-1.72448 -1.57491,-4.63829 -1.89843,-6.47461 -0.32349,-1.83632 -0.90026,-3.57415 -1.28321,-3.86328 -0.3829,-0.28921 -1.50318,-2.1004 -2.48828,-4.02539 -4.90941,-9.59373 -11.63196,-15.95087 -10.99023,-10.39258 0.5633,4.87862 1.29719,13.79089 1.90429,23.14258 l 0.66407,10.25 -3.89258,0.14453 c -6.87602,0.25671 -10.80127,-0.30105 -14.89453,-2.11719 -2.19999,-0.9761 -6.38891,-2.33342 -9.3086,-3.01562 -7.55425,-1.76519 -10.47841,-4.58 -11.92578,-11.48047 -1.15041,-5.48447 -4.62931,-12.53125 -6.1875,-12.53125 -0.84279,0 -3.07812,6.79961 -3.07812,9.36523 0,0.8987 -0.35192,1.63477 -0.7832,1.63477 -2.08067,0 -25.64209,-27.30742 -35.40626,-41.03516 -6.71109,-9.4354 -11.4639,-18.70224 -12.80468,-24.96484 -0.73066,-3.41284 -1.05043,-11.89197 -0.8418,-22.3418 0.39114,-19.57746 0.53939,-19.87838 10.39844,-21.03711 4.7279,-0.5557 7.00325,-1.59027 13.32031,-6.06054 15.67603,-11.09314 31.14392,-24.83273 36.15039,-32.10938 2.86182,-4.15952 3.26589,-5.55516 3.32031,-11.48047 0.0778,-8.49642 -2.1365,-12.14592 -13.08984,-21.56836 -14.46482,-12.44318 -29.33363,-20.7125 -43.97461,-24.45703 -4.60551,-1.17785 -8.51432,-1.78644 -12.91602,-1.83984 z M 210.21484,470.94727 c 0.9099,-0.0632 1.10833,0.99007 0.69727,3.15234 -0.96401,5.07126 -3.19612,8.7477 -5.94531,9.79297 v -0.002 c -3.19355,1.21475 -5.38672,1.2245 -5.38672,0.0234 0,-2.47351 2.20354,-6.133 5.67383,-9.42187 2.42957,-2.30259 4.05104,-3.48168 4.96093,-3.54492 z"
         transform="scale(0.26458333)" />
    </g>
  </g>
</svg>
