<?xml version="1.0" encoding="UTF-8" standalone="no"?>
<svg
   xmlns:dc="http://purl.org/dc/elements/1.1/"
   xmlns:cc="http://creativecommons.org/ns#"
   xmlns:rdf="http://www.w3.org/1999/02/22-rdf-syntax-ns#"
   xmlns:svg="http://www.w3.org/2000/svg"
   xmlns="http://www.w3.org/2000/svg"
   xmlns:sodipodi="http://sodipodi.sourceforge.net/DTD/sodipodi-0.dtd"
   xmlns:inkscape="http://www.inkscape.org/namespaces/inkscape"
   width="211.66667mm"
   height="158.04443mm"
   viewBox="0 0 211.66667 158.04443"
   version="1.1"
   id="svg8"
   sodipodi:docname="logo.svg"
   inkscape:version="1.0.2 (e86c870879, 2021-01-15, custom)">
  <sodipodi:namedview
     pagecolor="#ffffff"
     bordercolor="#666666"
     borderopacity="1"
     objecttolerance="10"
     gridtolerance="10"
     guidetolerance="10"
     inkscape:pageopacity="0"
     inkscape:pageshadow="2"
     inkscape:window-width="1920"
     inkscape:window-height="1025"
     id="namedview14"
     showgrid="false"
     inkscape:zoom="1.4112724"
     inkscape:cx="421.79395"
     inkscape:cy="194.17716"
     inkscape:window-x="1920"
     inkscape:window-y="26"
     inkscape:window-maximized="1"
     inkscape:current-layer="layer1" />
  <defs
     id="defs2" />
  <metadata
     id="metadata5">
    <rdf:RDF>
      <cc:Work
         rdf:about="">
        <dc:format>image/svg+xml</dc:format>
        <dc:type
           rdf:resource="http://purl.org/dc/dcmitype/StillImage" />
        <dc:title />
      </cc:Work>
    </rdf:RDF>
  </metadata>
  <g
     id="layer1"
     transform="translate(-5.2916627,-35.882568)">
    <g
       id="g847"
       transform="translate(-6.8035733,9.8274044)"
       style="fill:#ffffff">
      <path
         style="fill:#ffffff;fill-opacity:1;stroke-width:0.352778"
         d="m 26.366137,141.32529 -1.394512,-1.4993 1.499306,1.39451 c 0.824618,0.76698 1.499305,1.44167 1.499305,1.49931 0,0.2669 -0.307216,-1.8e-4 -1.604099,-1.39452 z m 12.694407,-9.17222 -1.036141,-1.14653 1.146528,1.03614 c 0.63059,0.56988 1.146528,1.08582 1.146528,1.14653 0,0.27254 -0.291087,0.0326 -1.256915,-1.03614 z M 24.089681,71.077521 c 0,-0.07326 0.277812,-0.351067 0.617361,-0.617361 0.559525,-0.43881 0.572003,-0.426332 0.133193,0.133194 -0.460858,0.58764 -0.750554,0.774517 -0.750554,0.484167 z"
         id="path861" />
      <path
         style="fill:#ffffff;fill-opacity:1;stroke-width:0.352778"
         d="m 61.770758,156.69472 c 0.254659,-0.10191 0.55893,-0.0894 0.676158,0.0278 0.117225,0.11722 -0.09114,0.2006 -0.463021,0.18528 -0.410968,-0.0169 -0.494559,-0.10052 -0.213137,-0.21313 z m 7.386284,0.007 c 0.242535,-0.0979 0.63941,-0.0979 0.881945,0 0.242535,0.0979 0.0441,0.17794 -0.440972,0.17794 -0.48507,0 -0.683507,-0.0801 -0.440973,-0.17794 z M 62.476313,142.5836 c 0.25466,-0.10191 0.558931,-0.0894 0.676159,0.0278 0.117224,0.11722 -0.09114,0.2006 -0.463021,0.18528 -0.410969,-0.0169 -0.494559,-0.10052 -0.213138,-0.21313 z m 8.466667,0 c 0.25466,-0.10191 0.558931,-0.0894 0.676159,0.0278 0.117224,0.11722 -0.09114,0.2006 -0.463021,0.18528 -0.410969,-0.0169 -0.494559,-0.10052 -0.213138,-0.21313 z m -2.491493,-26.48135 c 3.346979,-0.058 8.823854,-0.058 12.170833,0 3.34698,0.058 0.608542,0.10542 -6.085416,0.10542 -6.693959,0 -9.432396,-0.0474 -6.085417,-0.10542 z m -56.3284,-16.522323 c 0.01693,-0.410968 0.10052,-0.494559 0.213136,-0.213138 0.101908,0.25466 0.08938,0.558931 -0.02785,0.676161 -0.117226,0.11722 -0.200604,-0.09114 -0.185286,-0.463023 z M 94.441258,65.213494 c 0,-3.977569 0.05145,-5.604757 0.114331,-3.615972 0.06288,1.988784 0.06288,5.243159 0,7.231944 -0.06288,1.988784 -0.114331,0.361597 -0.114331,-3.615972 z m 71.112312,5.997221 -1.5875,-0.246806 1.47849,-0.05299 c 0.81316,-0.02914 1.5766,0.105767 1.69651,0.299794 0.11992,0.194028 0.16898,0.328934 0.10902,0.299794 -0.06,-0.02914 -0.82339,-0.164048 -1.69652,-0.299794 z M 63.15982,67.4493 c 0.242535,-0.09786 0.63941,-0.09786 0.881945,0 0.242534,0.09786 0.0441,0.177938 -0.440973,0.177938 -0.485069,0 -0.683507,-0.08007 -0.440972,-0.177938 z m 7.408334,0 c 0.242534,-0.09786 0.639409,-0.09786 0.881944,0 0.242535,0.09786 0.0441,0.177938 -0.440972,0.177938 -0.48507,0 -0.683507,-0.08007 -0.440972,-0.177938 z M 61.41798,53.330841 c 0.25466,-0.101908 0.55893,-0.08937 0.676158,0.02785 0.117225,0.117225 -0.09114,0.200603 -0.46302,0.185285 -0.410969,-0.01693 -0.49456,-0.10052 -0.213138,-0.213135 z m 11.641667,0 c 0.254659,-0.101908 0.55893,-0.08937 0.676158,0.02785 0.117225,0.117225 -0.09114,0.200603 -0.463021,0.185285 -0.410968,-0.01693 -0.494559,-0.10052 -0.213137,-0.213135 z"
         id="path859" />
      <path
         style="fill:#ffffff;fill-opacity:1;stroke-width:0.352778"
         d="m 26.206347,68.91766 c 0.658207,-0.679097 1.276115,-1.234722 1.373129,-1.234722 0.09701,0 -0.362144,0.555625 -1.020351,1.234722 -0.658207,0.679097 -1.276115,1.234722 -1.373129,1.234722 -0.09701,0 0.362145,-0.555625 1.020351,-1.234722 z"
         id="path857" />
      <path
         style="fill:#ffffff;fill-opacity:1;stroke-width:0.352778"
         d="m 64.218153,156.6774 c 0.824619,-0.0743 2.173994,-0.0743 2.998612,0 0.824618,0.0743 0.14993,0.13504 -1.499306,0.13504 -1.649236,0 -2.323924,-0.0608 -1.499306,-0.13504 z m 7.78316,-14.09379 c 0.25466,-0.10191 0.558931,-0.0894 0.676159,0.0278 0.117224,0.11722 -0.09114,0.2006 -0.463021,0.18528 -0.410968,-0.0169 -0.494559,-0.10052 -0.213138,-0.21313 z M 12.123087,109.4577 c 0.01693,-0.41096 0.10052,-0.49456 0.213136,-0.21313 0.101908,0.25466 0.08938,0.55893 -0.02785,0.67615 -0.117226,0.11723 -0.200604,-0.0911 -0.185286,-0.46302 z m 16.315688,-4.55671 c 0.0016,-1.35819 0.06533,-1.87059 0.141696,-1.13866 0.07637,0.73193 0.07509,1.84318 -0.0029,2.46944 -0.07792,0.62627 -0.140403,0.0274 -0.138838,-1.33078 z m -16.315688,-4.26273 c 0.01693,-0.41097 0.10052,-0.49456 0.213136,-0.21314 0.101908,0.25466 0.08938,0.55893 -0.02785,0.67616 -0.117226,0.11723 -0.200604,-0.0911 -0.185286,-0.46302 z M 62.123535,67.441952 c 0.25466,-0.101907 0.558931,-0.08938 0.676159,0.02783 0.117225,0.117228 -0.09114,0.200604 -0.463021,0.185286 -0.410968,-0.01693 -0.494559,-0.10052 -0.213138,-0.213134 z m 10.230556,0 c 0.25466,-0.101907 0.558931,-0.08938 0.676159,0.02783 0.117224,0.117228 -0.09114,0.200604 -0.463021,0.185286 -0.410969,-0.01693 -0.494559,-0.10052 -0.213138,-0.213134 z M 110.2361,56.131001 c 2.07505,-0.06226 5.56755,-0.06248 7.76111,-4.94e-4 2.19357,0.06199 0.49581,0.112936 -3.77281,0.113202 -4.26861,2.67e-4 -6.06334,-0.05046 -3.9883,-0.112717 z m 102.69706,-3.88e-4 c 2.09635,-0.06248 5.4301,-0.06224 7.40834,5.29e-4 1.97824,0.06277 0.26304,0.113883 -3.81154,0.113595 -4.07458,-2.88e-4 -5.69314,-0.05164 -3.5968,-0.114119 z M 62.454265,53.33819 c 0.242534,-0.09786 0.639409,-0.09786 0.881944,0 0.242535,0.09787 0.0441,0.177936 -0.440972,0.177936 -0.48507,0 -0.683507,-0.08007 -0.440972,-0.177936 z m 8.819444,0 c 0.242535,-0.09786 0.63941,-0.09786 0.881945,0 0.242534,0.09787 0.0441,0.177936 -0.440973,0.177936 -0.485069,0 -0.683507,-0.08007 -0.440972,-0.177936 z"
         id="path855" />
      <path
         style="fill:#ffffff;fill-opacity:1;stroke-width:0.352778"
         d="m 38.55357,77.737104 c 0.455699,-0.48507 0.907919,-0.881945 1.004932,-0.881945 0.09701,0 -0.196456,0.396875 -0.652154,0.881945 -0.455699,0.485069 -0.907919,0.881944 -1.004933,0.881944 -0.09701,0 0.196456,-0.396875 0.652155,-0.881944 z"
         id="path853" />
      <path
         style="fill:#ffffff;fill-opacity:1;stroke-width:0.352778"
         d="m 72.001313,156.34194 c 0.25466,-0.1019 0.558931,-0.0894 0.676159,0.0278 0.117224,0.11722 -0.09114,0.2006 -0.463021,0.18528 -0.410968,-0.0169 -0.494559,-0.10052 -0.213138,-0.21313 z m -6.372048,-13.41353 c 0.436562,-0.0841 1.150937,-0.0841 1.5875,0 0.436562,0.0841 0.07937,0.15288 -0.79375,0.15288 -0.873125,0 -1.230313,-0.0688 -0.79375,-0.15288 z m 21.059472,-15.44964 c 1.41e-4,-6.20889 0.04814,-8.69921 0.106669,-5.53404 0.05853,3.16517 0.05841,8.24517 -2.58e-4,11.28889 -0.05867,3.04372 -0.106553,0.45403 -0.106411,-5.75485 z M 12.150938,108.25238 c 0,-0.48507 0.08007,-0.68351 0.177936,-0.44097 0.09786,0.24253 0.09786,0.63941 0,0.88194 -0.09787,0.24254 -0.177936,0.0441 -0.177936,-0.44097 z m 16.199927,-0.20579 c 0.01693,-0.41097 0.100521,-0.49456 0.213136,-0.21313 0.101908,0.25465 0.08938,0.55893 -0.02785,0.67615 -0.117226,0.11723 -0.200604,-0.0911 -0.185286,-0.46302 z M 12.16401,102.07877 c 0.0072,-0.58209 0.08625,-0.7775 0.175698,-0.43426 0.08944,0.34324 0.08356,0.81949 -0.01307,1.05833 -0.09663,0.23884 -0.169816,-0.042 -0.162626,-0.62407 z m 16.186855,-0.0294 c 0.01693,-0.41097 0.100521,-0.49456 0.213136,-0.21314 0.101908,0.25466 0.08938,0.55893 -0.02785,0.67616 -0.117226,0.11723 -0.200604,-0.0911 -0.185286,-0.46302 z M 65.64109,53.311336 c 1.025151,-0.07149 2.612651,-0.07074 3.527778,0.0017 0.915126,0.07241 0.07637,0.130895 -1.863909,0.129977 -1.940278,-9.17e-4 -2.68902,-0.06016 -1.663869,-0.131647 z"
         id="path851" />
      <path
         style="fill:#aa9868;fill-opacity:1;stroke-width:0.352778"
         d="M 12.095236,32.757941 V 26.055164 H 117.92857 223.76191 v 6.702777 6.702777 H 117.92857 12.095236 Z"
         id="path845" />
      <path
         style="fill:#ffffff;fill-opacity:1;stroke-width:0.352778"
         d="m 136.11225,151.22018 c -0.49468,-1.61014 -7.31019,-23.56503 -15.14557,-48.78863 l -14.24616,-45.861111 7.59608,-0.09522 c 4.17784,-0.05237 7.64115,-0.05014 7.69625,0.005 0.0551,0.0551 4.32104,14.306068 9.47988,31.668826 5.15884,17.362755 9.517,31.886145 9.68481,32.274205 0.36958,0.85467 -0.0514,1.74148 13.10325,-27.600821 l 9.68528,-21.6036 1.43397,-0.004 c 1.28255,-0.0036 1.49382,0.121483 2.00081,1.184653 0.31177,0.653778 5.35943,11.726589 11.21702,24.606247 5.85759,12.879651 10.7516,23.526191 10.87557,23.658951 0.12398,0.13277 4.58915,-14.27379 9.92262,-32.014573 l 9.6972,-32.255993 h 7.28391 7.2839 l -0.84349,2.734028 c -0.46391,1.503715 -7.24567,23.4509 -15.07056,48.771518 l -14.22706,46.0375 h -2.04607 -2.04607 L 177.3035,127.30238 c -6.67938,-14.6491 -12.25402,-26.74186 -12.3881,-26.87282 -0.13407,-0.13095 -5.56369,11.85468 -12.06582,26.63472 l -11.82205,26.87282 -2.00792,0.1053 -2.00792,0.10531 z"
         id="path843" />
      <path
         style="fill:#ffffff;fill-opacity:1;stroke-width:0.352778"
         d="m 59.19107,156.37321 c -17.579889,-2.48962 -30.514921,-10.13203 -38.886666,-22.97542 -5.424787,-8.32235 -7.965115,-17.36609 -7.955027,-28.32041 0.0083,-8.959198 1.391489,-15.580261 4.710503,-22.547498 2.607262,-5.473135 5.277922,-9.262945 9.475819,-13.446702 7.390329,-7.365435 16.571146,-12.142311 27.892871,-14.512952 2.464061,-0.515946 5.334311,-0.752428 10.84077,-0.893178 10.582695,-0.270504 17.381033,0.549345 25.583536,3.085257 l 3.439584,1.063392 v 7.259419 c 0,6.772832 -0.04138,7.242827 -0.617362,7.01192 C 89.004843,70.224747 81.58376,68.415721 75.60449,67.69199 71.155112,67.15344 62.43216,67.244061 58.796308,67.866612 46.579309,69.958471 37.667709,76.245535 32.554281,86.380158 26.39521,98.58721 27.157949,115.28981 34.384612,126.46109 c 7.447973,11.51339 20.680687,17.48233 36.271736,16.36126 6.352159,-0.45674 12.802383,-2.00294 15.367755,-3.68384 l 0.869904,-0.56999 -0.09314,-11.18932 -0.09313,-11.18932 -12.082639,-0.0928 -12.082639,-0.0928 v -7.05093 -7.05092 h 19.402778 19.402783 v 22.5593 22.5593 l -3.08681,1.68364 c -9.646681,5.2616 -18.685426,7.51178 -30.956251,7.7065 -3.880556,0.0616 -7.531806,0.0445 -8.113889,-0.0379 z"
         id="path841" />
      <path
         style="fill:#aa9868;fill-opacity:1;stroke-width:0.352778"
         d="m 12.095236,177.39682 v -6.70278 H 117.92857 223.76191 v 6.70278 6.70277 H 117.92857 12.095236 Z"
         id="path849" />
    </g>
  </g>
</svg>
